<svg width="279" height="289" viewBox="0 0 279 289" fill="none" xmlns="http://www.w3.org/2000/svg">
<path d="M115.61 7.8999C117.28 7.55991 118.95 7.24991 120.61 6.8999C129.17 4.95993 137.71 2.8999 146.31 1.13989C147.83 0.829895 149.59 1.85992 151.2 1.7699C153.86 1.62991 156.49 1.02997 159.14 0.709961C161.4 0.429962 163.86 -0.360016 165.93 0.189941C177.93 3.41998 189.85 6.96994 201.79 10.4399C202.759 10.6838 203.686 11.0714 204.54 11.59C210.54 15.53 216.63 19.31 222.33 23.59C225.05 25.65 226.97 28.7499 229.25 31.3999C229.78 32.0099 230.25 32.7 230.76 33.31C236.64 40.09 242.88 46.6 248.3 53.73C251.7 58.2 256.01 58.95 260.39 57.7999C265.52 56.4699 266.73 61.0099 269.57 62.8799C270.2 63.2899 271.42 67.94 267.76 69.59C267.09 69.9 267.18 72.03 267.03 73.33C266.49 78.05 264.52 82.6299 266.48 87.5499C268.64 92.9699 271.01 98.43 272.13 104.1C274.13 114.28 275.51 124.62 276.67 134.94C277.37 141.06 276.14 147.52 277.57 153.39C280.4 165.08 274.76 175.18 272.77 185.9C271.57 192.33 268.9 198.47 265.77 204.56C263.35 209.35 260.12 213.48 257.47 218.01C256.25 220.1 253.19 221.01 251.54 223.01C249.39 225.55 248.16 228.92 245.89 231.31C242.36 235.01 238.21 238.11 234.46 241.62C231.87 244.04 229.93 247.41 226.98 249.16C220.89 252.77 213.44 254.54 208.19 258.99C202.37 263.94 192.66 263.58 189.94 272.67C189.46 274.28 187.31 275.9 185.57 276.52C180.76 278.22 176.82 281.91 171.18 281.93C167.43 281.93 163.56 283.27 159.98 284.63C149.539 288.615 138.259 289.895 127.19 288.35C117.53 287.08 107.66 287.35 97.9401 286.42C93.6001 285.98 89.3801 284.17 85.1601 282.81C80.6901 281.36 76.0701 280.13 71.9001 278.03C66.3601 275.25 61.1701 271.75 55.9001 268.49C50.6301 265.23 45.4301 262.04 40.3201 258.62C38.3365 257.425 36.6316 255.819 35.3201 253.91C30.8801 246.48 26.7001 238.91 22.5601 231.28C19.59 226.186 16.9188 220.924 14.5601 215.52C12.6301 210.69 11.7301 205.46 10.3001 200.42C8.30009 193.42 5.73009 186.51 4.30009 179.42C3.18009 173.8 3.48007 167.91 3.06007 162.14C2.86443 160.727 2.58056 159.328 2.2101 157.95C1.7701 155.75 0.680073 153.42 1.03007 151.35C3.67007 135.93 7.57009 120.66 9.17009 105.15C10.7401 90.0399 17.2601 77.4099 26.4601 66.4999C36.0001 55.1999 44.7401 42.9199 58.5801 35.4999C67.4401 30.7599 74.8901 23.39 82.9601 17.18C83.8801 16.4799 84.6601 15.35 85.6901 15.0499C95.5201 12.2199 105.39 9.53998 115.26 6.80994C115.45 7.11996 115.52 7.54993 115.61 7.8999ZM158.99 139.1C165.34 135.28 170.48 132.1 175.77 129.1C178.87 127.35 178.93 125.17 177.41 122.45C174.07 116.45 170.87 110.37 167.32 104.5C164.98 100.63 162.03 97.14 159.54 93.36C154.95 86.43 148.54 80.6599 146.23 72.2599C146.15 71.9699 145.81 71.7599 145.61 71.4899C141.87 66.3599 138.19 61.17 134.36 56.11C132.02 53.03 129.95 49.37 126.86 47.33C118.74 41.96 110.11 37.33 101.99 32.61C100.573 33.4444 99.2169 34.3766 97.9301 35.3999C96.3501 36.8399 94.0601 38.3299 93.6901 40.1299C92.1801 47.4699 88.6901 54.5099 90.7401 62.5099C91.3201 64.7999 88.9001 67.7699 88.1201 70.5099C87.4501 72.8999 87.5801 75.59 86.6001 77.81C84.1901 83.2299 84.0301 88.24 87.7901 93.1C88.3867 93.8425 88.7549 94.7422 88.8501 95.69C89.0601 102.19 89.2201 108.69 89.2001 115.2C89.3141 117.363 88.9735 119.526 88.2001 121.55C85.9901 126.38 90.9501 128.27 92.1001 131.68C92.2501 132.12 94.9301 132.32 95.9801 131.77C105.68 126.6 115.06 120.77 124.98 116.12C131.291 113.072 138.039 111.028 144.98 110.06C152.13 109.15 158.9 118.45 158.45 126.36C158.19 130.22 158.74 134.15 158.99 139.1ZM122.59 143.1C117.54 144.75 113.31 145.99 109.18 147.53C107.41 148.19 105.95 149.72 104.18 150.41C100.98 151.65 97.9301 158.23 99.3101 161.5C101.43 166.5 106.19 170.13 106.8 176.07C106.97 177.72 109.17 179.07 110.17 180.74C112.28 184.26 115.9 187.9 115.85 191.45C115.76 197.3 118.51 198 122.85 198.54C131.04 199.54 134.12 202.95 134.41 210.84C134.72 219.33 143.86 224.73 151.14 220.84C157.82 217.25 164.78 214.13 171.27 210.24C178.27 206.05 185 201.39 191.58 196.57C194.14 194.69 195.42 191.82 192.87 188.57C192.06 187.52 191.87 185.84 191.74 184.42C190.49 173.55 189.3 162.67 188.05 151.34L174.95 159.22L172.47 157.88C171.54 159.02 170.98 160.19 170.06 160.77C166.17 163.2 162.27 165.64 158.19 167.71C154.371 169.62 150.437 171.29 146.41 172.71C143.26 173.84 139.92 174.43 136.68 175.35C136.38 175.43 136.34 176.23 136.01 176.5C135.16 177.19 134.26 178.24 133.3 178.34C128.25 178.87 123.92 176.25 121.83 171.22C121.02 169.27 121.04 166.98 120.61 164.86C119.61 159.73 118.11 154.68 121.22 149.61C122.16 147.99 122.05 145.81 122.59 143.07V143.1ZM197.78 109.1C198.604 108.796 199.389 108.397 200.12 107.91C206.56 102.69 213.26 97.75 219.27 92.07C225.074 86.4891 230.509 80.5365 235.54 74.2499C239.21 69.7499 238.04 66.6899 233.86 62.6499C230.2 59.0999 227.57 54.5099 224.07 50.7699C221.686 48.3074 218.954 46.2083 215.96 44.5399C213.88 43.3599 210.96 43.6 208.96 42.34C206.19 40.59 204.27 37.34 201.4 35.96C195.48 33.15 189.16 31.1799 183.01 28.8699C182.559 28.6553 182.09 28.4781 181.61 28.34C175.01 27.05 168.32 26.0699 161.81 24.4099C156.71 23.1099 151.37 24.9399 146.14 21.4099C143.81 19.8499 138.09 23.3399 134.05 24.4999C139.37 28.1199 144.31 31.42 149.19 34.82C150.952 36.0301 152.623 37.367 154.19 38.82C158.5 42.91 162.83 46.9699 166.92 51.2699C168.92 53.3799 170.35 56.0299 172.11 58.3799C175.03 62.2999 178.29 66 180.9 70.11C183.9 74.78 186.9 79.58 188.77 84.73C190.77 90.2 196.29 95.14 192.65 101.58L197.78 109.1ZM189.72 253.55C196.05 250.71 201.86 248.18 207.6 245.55C211.78 243.61 216.54 242.24 219.87 239.29C227.38 232.64 235 225.8 240.97 217.84C245.72 211.51 252.57 206 253.09 196.92C253.28 193.56 254.81 190.3 255.53 186.92C257.29 178.74 259.01 170.55 260.53 162.33C260.76 161.07 259.77 159.59 259.06 157.33C257.99 158.86 257.32 159.33 257.33 159.85C257.4 163.59 256.52 166.2 252.17 167.18C249.59 167.95 247.292 169.459 245.56 171.52C242.816 174.653 240.404 178.061 238.36 181.69C235.94 185.94 234.8 191.92 229.56 192.88C224.32 193.84 223.67 197.78 221.17 200.75C219 203.32 216.02 206.95 213.39 206.96C210.24 206.96 210.22 208.55 209.01 210.02C208.31 210.87 206.82 211.02 205.7 211.57C205.13 211.83 204.29 211.97 204.07 212.41C202.75 215.01 204.16 216.77 203 219.51C201.06 223.99 195.48 235.36 193.59 239.87L191.74 239.29C192.4 234.87 194.14 224.51 195.05 218.45L185.3 224.37C184.49 224.87 183.52 225.91 182.87 225.74C176.51 224.09 174.27 231.03 169.21 232.23C167.51 232.64 166.28 235.03 164.34 237.02C170.64 239.4 174.19 244.94 181.06 245.39C183.57 245.55 185.87 249.39 188.18 251.63C188.758 252.215 189.274 252.859 189.72 253.55ZM23.5601 161.2C22.7601 163.13 21.6501 164.76 21.9901 165.2C24.9901 168.76 23.7601 172.56 23.5701 176.56C23.4401 179.23 26.0301 181.91 26.6201 184.75C27.7701 190.33 26.3301 196.75 32.4501 200.53C33.0201 200.89 32.7901 202.41 33.1201 203.32C34.7201 207.63 36.2101 211.99 38.1201 216.14C38.5601 217.07 40.6801 217.75 41.9701 217.66C46.9701 217.3 51.9201 216.05 56.8801 216.11C68.6301 216.24 79.8801 214.99 90.4701 207.55C89.4487 204.151 88.2368 200.813 86.8401 197.55C84.8401 193.48 82.1701 189.79 80.1101 185.77C76.8801 179.44 73.6701 173.07 70.9401 166.52C69.2501 162.46 64.9901 161.52 63.0601 162.83C57.0601 166.91 50.9001 163.65 44.9401 164.64C40.3401 165.4 34.9401 163.24 30.9401 164.87C26.9401 166.5 26.0301 164.55 23.5601 161.23V161.2ZM66.6401 51.34L64.8201 50.1C61.3801 52.91 57.8201 55.56 54.5401 58.58C51.5972 61.4131 48.8035 64.397 46.1701 67.5199C42.8301 71.3299 39.4201 75.05 37.4701 79.9299C35.5201 84.8099 31.2401 89.1099 32.1301 95.1299C32.1301 95.2199 31.7601 95.3799 31.8701 95.2999L30.5201 92.7599C26.9001 110.24 23.5901 126.23 20.1001 143.05C21.879 143.578 23.7095 143.913 25.5601 144.05C32.7001 143.89 39.8401 143.46 46.9801 143.16C50.5901 143.01 54.2801 143.29 57.7901 142.62C59.2501 142.34 61.3801 140.1 61.3801 138.75C61.2138 134.805 60.6985 130.883 59.8401 127.03C58.1801 118.03 56.2801 109.03 61.4701 100.49C61.7501 100.03 61.2601 99.1499 61.4101 98.4899C62.5101 94.0899 58.7301 90.6799 58.6301 87.0499C58.4601 80.48 59.7801 73.7799 61.2501 67.2999C62.4501 61.8999 64.8001 56.6899 66.6401 51.3699V51.34ZM53.8501 241.49L53.1801 243.49C58.8901 248.04 64.1801 253.22 70.4101 256.97C76.9201 260.97 84.2401 263.54 91.2301 266.69C94.4801 268.16 97.6701 270.11 101.09 270.81C106.776 271.809 112.511 272.514 118.27 272.92C125.27 273.6 132.38 274.85 139.38 274.52C147.27 274.16 155.09 272.3 162.95 271.14C166.49 270.61 170.05 270.21 173.61 269.75L173.52 268.4C170.01 268.58 167.3 265.65 162.85 268.07C159.13 270.07 153.59 270.46 149.36 269.46C143.1 267.98 136.65 265.75 132.57 259.88C131.061 257.51 129.312 255.301 127.35 253.29C126.44 252.43 124.05 251.94 123.13 252.52C120.192 254.347 116.844 255.412 113.39 255.62C110.39 255.93 107.53 258.03 105.31 254.97C101.65 249.9 101.69 244.34 104.47 240.79C106.66 237.98 108.47 234.9 110.47 232.03C104.72 226.45 101.68 226.03 95.8701 229.51C92.1001 231.77 88.4801 234.68 84.3801 235.9C77.3801 237.99 69.9801 239.05 62.7301 240.4C59.7901 240.99 56.8101 241.16 53.8501 241.49ZM209.9 180.33C209.24 179.71 209.41 179.95 209.48 179.92C223.26 174.69 229.58 162.63 236 150.73C238.18 146.73 239 141.6 242 138.47C245.36 134.97 250.28 132.73 254.88 130.77C257.48 129.66 258.8 128.94 258.19 125.95C256.33 116.76 254.63 107.53 252.83 98.1399C250.98 100.38 249.26 102.46 247.34 104.8C246.54 103.59 245.98 102.72 245.39 101.8C242.82 104.41 243.05 110.35 237.09 108.07C236.09 111.19 235.71 115.15 233.63 117.67C231.3 120.49 227.36 121.96 224.19 124.12C223.19 124.76 222.49 126.45 221.68 126.43C218.68 126.37 218.68 126.17 217.05 128.35L215.9 126.35C213.81 128.98 211.53 131.52 209.65 134.35C208.52 136.05 207.29 138.2 207.38 140.08C207.724 145.654 208.348 151.208 209.25 156.72C210.03 161.95 214 166.82 210.06 172.55C208.97 174.16 209.9 177.17 209.9 180.33Z" fill="#7C5DF8"/>
</svg>
