<svg width="398" height="283" viewBox="0 0 398 283" fill="none" xmlns="http://www.w3.org/2000/svg">
<path d="M396.928 78.2256C397.028 77.4056 392.248 75.7656 389.568 74.9856C388.288 74.6156 386.678 75.4455 385.218 75.6555C381.128 76.2355 376.648 78.1357 373.018 77.0857C361.248 73.7057 349.808 69.1757 342.018 58.8257C339.148 55.0057 334.568 54.1655 330.748 57.1655C328.772 58.6934 326.983 60.4489 325.418 62.3955C320.018 69.2755 320.198 71.7955 325.618 78.8955C327.258 81.0355 328.308 83.6257 329.808 86.3157L317.148 89.6157C316.628 88.0557 315.438 86.2257 315.898 85.6157C317.305 83.7756 318.327 81.6707 318.902 79.4268C319.478 77.1829 319.596 74.846 319.248 72.5557C318.898 69.4857 319.738 66.2657 320.128 63.1157C320.628 58.9457 321.658 54.7856 321.658 50.6156C321.658 45.4856 321.828 39.9556 319.998 35.3756C318.748 32.2656 318.198 29.6656 318.848 26.7356C319.848 22.4756 317.628 15.7356 314.348 12.8656C311.717 10.4883 309.226 7.96078 306.888 5.29565C303.888 1.97565 300.298 -0.204407 295.888 0.725586C291.058 1.72559 286.088 0.565643 281.228 3.26562C275.618 6.38562 268.818 7.26562 263.078 10.2656C252.368 15.7656 244.558 24.9656 236.148 33.2656C233.152 36.2657 230.489 39.5817 228.208 43.1556C225.578 47.2457 223.588 51.7456 221.208 56.0056C218.598 60.7256 215.868 65.3757 213.208 70.0557H211.668C211.258 67.4657 211.348 64.6657 210.328 62.3457C208.658 58.4271 206.544 54.7128 204.028 51.2756C200.116 46.086 195.898 41.1339 191.398 36.4457C188.912 34.0874 186.125 32.0697 183.108 30.4457C173.188 24.5357 163.508 18.0957 153.108 13.1757C144.738 9.17566 135.658 6.17569 125.878 8.79565C120.378 10.2357 114.738 11.1157 109.188 12.3257C105.188 13.2157 100.978 13.8157 97.1879 15.3257C92.5379 17.1457 88.1879 19.7457 83.7479 22.0457C80.5279 23.7057 77.2379 25.2556 74.1579 27.1456C66.3279 31.9556 65.5479 43.2856 56.1579 46.7256C53.1579 54.0756 50.2778 61.5256 46.9578 68.7256C43.0878 77.1456 42.9578 86.1056 43.2078 94.9355C43.5178 106.706 38.2779 118.626 44.0279 130.256C44.1889 130.724 44.2435 131.223 44.1879 131.716C44.2579 139.946 46.9679 147.396 50.5379 154.006C43.2879 159.006 36.1778 163.776 29.2378 168.766C22.1178 173.896 15.1279 179.186 8.15786 184.516C4.31786 187.446 0.297833 190.466 0.00783294 195.826C-0.0821671 197.566 0.60786 200.036 1.84786 200.946C2.67812 201.411 3.60209 201.686 4.55205 201.748C5.50201 201.81 6.45387 201.659 7.33785 201.306C13.6878 198.306 19.8378 194.886 26.0478 191.586C37.0478 185.756 47.9078 179.746 59.0478 174.226C60.7878 173.366 64.1378 174.026 65.8578 175.226C68.9879 177.559 71.7985 180.292 74.2179 183.356C78.7079 188.716 82.6379 194.556 87.2779 199.756C92.5979 205.756 98.4378 211.216 104.078 216.886C108.648 221.486 112.938 226.466 117.948 230.536C128.168 238.826 138.848 246.536 149.218 254.646C154.868 259.066 160.088 264.066 165.868 268.296C170.508 271.686 175.688 274.296 180.658 277.296C183.588 279.036 186.568 280.695 189.528 282.396L190.638 281.336C189.888 279.856 189.468 278.036 188.338 276.956C183.528 272.356 178.338 268.116 173.578 263.476C166.218 256.346 159.138 248.936 151.798 241.776C150.348 240.356 148.168 239.716 146.538 238.446C143.438 236.026 138.798 233.856 137.978 230.756C137.297 228.032 135.813 225.575 133.718 223.706C126.718 216.926 119.558 210.376 112.778 203.416C110.328 200.896 108.868 197.416 106.848 194.466C103.698 189.836 102.468 183.416 96.0178 182.536C95.4478 180.716 95.3078 179.126 94.5178 177.976C92.995 175.86 91.3241 173.855 89.5178 171.976C88.6478 171.026 87.5178 169.606 86.5178 169.586C82.1278 169.516 84.8379 165.056 82.6479 163.756C83.8178 162.326 84.7178 160.116 86.1978 159.616C91.5778 157.796 97.1979 156.546 102.658 155.066C103.428 154.856 104.198 154.596 104.948 154.326C109.478 152.696 114.088 149.556 118.508 149.796C123.536 150.296 128.56 148.81 132.508 145.656C134.788 143.926 138.008 143.416 141.328 142.156C140.228 148.336 138.878 153.756 138.328 159.256C137.498 168.436 140.938 173.316 149.378 173.746C155.578 174.056 162.568 174.106 167.938 171.576C174.128 168.646 180.038 165.166 186.718 163.306C193.758 161.306 200.794 159.306 207.828 157.306C211.828 156.166 215.828 155.026 219.828 153.816C223.178 152.816 225.828 150.266 229.658 150.106C232.138 149.996 234.538 148.686 237.038 148.236C238.418 147.986 240.248 148.996 241.298 148.416C244.748 146.516 247.908 144.076 251.298 141.976C252.1 141.527 253.032 141.368 253.938 141.526C258.368 142.446 260.938 139.436 264.228 137.376C266.538 135.906 269.638 135.676 273.418 134.606L268.058 142.446C264.188 148.076 260.658 153.996 256.328 159.246C251.998 164.496 246.328 168.966 241.928 174.316C236.268 181.176 231.328 188.626 225.978 195.756C220.978 202.476 215.478 208.896 210.798 215.846C207.148 221.276 205.338 228.156 201.058 232.906C193.978 240.766 191.718 250.536 187.998 259.756C187.328 261.426 187.488 264.756 188.538 265.496C189.501 266.083 190.583 266.45 191.705 266.57C192.828 266.689 193.962 266.558 195.028 266.186C202.558 262.713 208.59 256.652 212.028 249.106C215.513 241.274 220.711 234.323 227.238 228.766C231.368 225.256 234.758 220.886 237.738 217.696C239.558 216.836 240.988 216.616 241.628 215.786C246.688 209.119 251.661 202.392 256.548 195.606C259.548 191.486 262.468 187.336 265.078 182.986C267.568 178.826 276.308 179.516 273.908 171.596C273.908 171.596 274.628 171.486 274.758 171.276C275.498 170.086 276.158 168.846 276.898 167.526C280.278 168.656 282.998 168.056 284.268 164.176C284.894 162.135 285.635 160.132 286.488 158.176C288.488 153.956 290.558 149.796 292.868 145.066C295.738 144.906 297.238 142.646 296.068 138.686C295.628 137.196 294.788 135.146 295.408 134.146C297.543 130.907 299.913 127.828 302.498 124.936C303.301 124.225 304.255 123.705 305.288 123.416C309.838 121.606 314.708 120.356 318.888 117.936C321.958 116.146 324.338 114.606 327.298 117.396C331.478 112.446 337.038 112.226 340.718 116.536C335.352 122.914 332.096 130.8 331.398 139.106C330.828 145.106 332.718 147.606 338.278 146.376C341.558 145.646 345.588 143.846 347.278 141.226C351.128 135.166 353.718 128.316 356.878 121.806C357.138 121.266 357.798 120.936 358.198 120.446C359.871 118.446 361.538 116.429 363.198 114.396C364.348 112.976 365.198 110.876 366.678 110.226C369.978 108.776 372.738 107.096 374.178 103.626C374.458 102.936 375.438 101.936 375.908 102.026C380.298 102.886 380.358 98.7257 382.418 96.8357C385.848 93.6857 389.418 90.3356 393.648 88.4956C399.048 86.1056 396.538 81.6656 396.928 78.2256ZM296.928 84.1357C296.848 89.0157 294.338 93.9256 292.568 98.6855C292.158 99.7856 290.358 100.586 289.028 101.086C277.708 105.366 266.308 109.396 255.028 113.806C250.508 115.586 246.268 118.106 241.908 120.306C241.618 120.446 241.398 120.856 241.118 120.886C232.048 121.806 225.468 127.996 217.838 131.886C215.258 133.216 213.088 135.296 210.638 136.886C202.988 141.946 195.518 147.396 186.578 150.076C182.038 151.436 177.418 152.486 171.428 154.076C175.428 144.296 179.358 136.076 182.228 127.486C183.848 122.656 185.018 117.046 180.758 112.566C179.422 111.289 177.762 110.404 175.958 110.006C165.098 107.336 154.228 110.356 143.818 112.006C131.978 113.886 120.698 119.326 110.508 126.636C103.208 131.876 94.7478 135.496 86.8379 139.896C83.8379 141.566 80.8879 143.396 77.9079 145.136C75.1879 146.706 73.3879 146.756 72.8479 142.856C72.0882 137.215 71.02 131.62 69.6479 126.096C69.1279 124.096 67.2178 122.366 66.0879 120.736C66.0196 118.45 65.8259 116.17 65.5078 113.906C64.7778 110.056 64.1179 106.406 66.7179 102.816C67.0983 102.115 67.3058 101.335 67.3232 100.538C67.3406 99.7412 67.1674 98.9518 66.8179 98.2356C63.4379 93.0756 63.5579 87.7457 65.4679 82.2957C65.9079 81.0257 67.4678 80.2056 68.2278 78.9856C69.7478 76.4856 71.7979 73.9856 72.3079 71.2656C73.6179 64.2656 80.1178 61.9657 84.0178 57.3657C85.0178 56.2257 85.8978 55.0257 87.0178 53.5857C93.9178 51.7357 100.338 47.9457 106.268 43.0757C107.597 42.0761 109.174 41.4573 110.828 41.2856C116.118 40.6857 121.458 39.9656 126.468 42.8556C127.358 43.3756 129.178 43.5456 129.838 42.9956C134.388 39.1856 138.138 43.3656 142.238 43.9956C147.238 44.7156 152.418 44.7357 157.348 45.8257C163.858 47.2757 170.348 48.9556 175.048 54.5156C177.208 57.0856 179.958 59.1656 182.458 61.4456C190.398 68.7056 193.918 78.6757 198.738 87.8557C198.818 87.9957 198.738 88.2357 198.828 88.3457C205.208 95.8957 204.828 104.346 202.608 113.276C202.097 116.213 202.658 119.236 204.188 121.796C205.188 123.466 208.538 124.896 210.508 124.546C214.088 123.916 217.088 121.836 217.278 117.226C217.528 111.506 217.538 105.586 219.088 100.156C220.438 95.4255 223.958 91.3557 226.088 86.8057C226.968 84.9857 226.668 82.6257 227.238 80.5957C227.386 80.0825 227.641 79.6063 227.986 79.198C228.33 78.7897 228.757 78.4583 229.238 78.2256C232.748 77.1356 234.188 74.6257 235.468 71.3757C237.968 64.9957 242.878 59.9355 246.158 54.1455C249.438 48.3555 253.898 44.4157 258.498 40.6957C262.928 37.0957 263.738 29.8656 270.338 28.9556C275.98 28.0452 281.697 27.6902 287.408 27.8956C288.988 27.9856 290.138 31.9656 291.838 33.8956C296.378 38.8956 296.178 45.1656 297.598 51.2856C300.328 62.5157 297.118 73.2057 296.928 84.1357Z" fill="#7C5DF8"/>
</svg>
