<svg width="238" height="281" viewBox="0 0 238 281" fill="none" xmlns="http://www.w3.org/2000/svg">
<path d="M219.073 39.7478C222.663 39.4678 225.353 38.9279 227.993 39.1079C234.823 39.5879 238.753 45.6679 237.313 52.3579C236.603 55.6279 237.013 59.1178 236.703 62.4877C236.432 64.7597 236.011 67.0114 235.443 69.2279C235.233 70.1479 234.153 71.2278 234.443 71.8278C236.613 76.9578 232.443 80.6878 231.693 85.1378C231.213 87.8778 230.993 90.6678 230.413 93.3878C229.773 96.3878 228.633 99.3078 228.113 102.388C227.263 107.388 226.873 112.388 226.023 117.388C225.453 120.708 224.183 123.908 223.663 127.238C223.033 131.318 222.913 135.478 222.463 139.598C221.963 144.238 221.343 148.858 220.673 154.298C217.023 155.178 215.983 157.838 218.283 162.298C219.103 163.888 218.283 166.298 218.353 168.298C218.353 169.888 218.003 172.118 218.873 172.958C221.703 175.678 219.823 178.448 219.783 181.278C219.693 186.798 220.483 192.368 220.013 197.848C219.586 204.459 218.384 210.997 216.433 217.328C216.003 218.628 214.433 220.568 213.723 222.598C213.183 224.128 211.403 225.208 210.253 226.598C207.54 229.741 205.465 233.382 204.143 237.318C202.933 240.838 198.843 243.378 195.933 246.468C195.363 246.588 193.233 246.688 193.173 247.088C192.173 253.808 186.493 255.258 181.693 257.768C179.633 258.838 177.333 259.768 175.693 261.338C168.633 268.198 160.433 268.708 150.903 268.618C136.983 268.488 129.663 259.298 122.733 250.488C118.243 244.778 115.463 236.728 117.913 228.148C119.013 224.308 117.283 219.738 117.703 215.588C118.043 212.138 119.533 208.768 120.703 205.438C123.913 196.438 129.703 189.338 136.703 182.978C144.908 175.288 155.004 169.909 165.963 167.388C172.813 165.838 179.963 165.708 187.063 165.258C188.853 165.148 190.803 166.868 192.353 167.518C194.263 159.978 194.213 151.728 195.443 143.968C195.883 141.198 196.383 138.448 196.873 135.698C197.676 131.985 198.085 128.197 198.093 124.398C197.903 119.168 196.193 114.038 196.343 108.808C196.307 108.292 196.433 107.778 196.703 107.338C197.443 106.338 199.023 106.798 200.273 106.618C203.213 106.218 203.973 102.258 203.403 99.3378C202.833 96.4178 201.733 93.1279 203.463 90.7178C204.023 89.9478 204.813 89.3678 205.333 88.5678C207.623 85.0078 203.073 80.4678 203.953 76.3278C204.303 74.6978 205.463 73.3278 206.273 71.9278C207.083 70.5278 207.513 68.5179 206.463 67.2279C201.503 68.8279 196.503 70.2944 191.463 71.6278C186.863 72.8378 183.533 72.3578 178.843 71.9678C176.263 71.7478 173.343 70.7278 171.143 71.5578C161.523 75.1978 152.143 79.4178 142.593 83.3378C136.593 85.7878 130.593 88.1078 124.593 90.4178C121.753 91.4978 119.753 93.0779 119.933 96.4779C119.972 96.8583 119.935 97.2429 119.824 97.6087C119.712 97.9746 119.528 98.3143 119.283 98.6079C116.523 100.948 115.723 103.828 117.123 107.148C118.253 109.808 116.203 118.528 113.983 119.918C113.213 120.248 112.39 120.438 111.553 120.478C110.273 130.738 110.443 140.878 105.503 150.018C105.213 150.558 104.923 151.478 105.173 151.858C109.553 158.428 106.383 164.768 105.173 171.368C104.333 175.808 105.463 180.598 105.473 185.238C105.473 186.968 107.893 190.498 103.003 189.618C102.863 191.528 102.193 193.618 102.703 195.308C103.583 198.308 104.643 200.738 103.703 204.368C102.063 210.908 102.853 217.658 97.6427 223.618C94.2527 227.498 93.3027 233.748 91.9627 239.108C89.5927 248.568 84.3027 255.878 76.9627 262.018C73.0127 265.328 69.6427 269.388 65.4527 272.318C60.9427 275.488 56.0227 278.538 50.8227 280.128C47.1327 281.258 42.6327 280.198 38.5827 279.548C34.8627 278.938 31.2827 276.768 27.5827 276.688C18.1627 276.478 14.1827 269.048 9.14273 263.378C2.81273 256.258 0.242724 247.588 1.26272 237.858C1.61272 234.488 0.682719 230.988 0.382719 227.538C0.242719 225.888 -0.307275 224.038 0.232725 222.618C3.36273 214.238 6.97273 206.028 10.0227 197.618C13.6527 187.618 22.4427 182.358 29.7627 175.898C35.5174 170.871 43.0023 168.282 50.6327 168.678C57.3127 168.858 63.8727 168.408 69.5127 173.068C70.5927 173.968 72.5727 173.778 74.4227 174.148C75.8227 157.608 85.5027 143.328 85.1827 126.148L69.3327 132.828C69.3327 132.828 69.5327 134.148 69.7627 135.568C69.0527 135.718 68.5327 135.988 68.1327 135.868C67.0727 135.578 65.6627 134.478 65.1327 134.868C60.1327 137.948 59.7227 133.448 58.3227 130.868C54.6427 124.088 57.0927 118.098 60.3827 111.868C62.1527 108.528 61.7027 104.028 63.3827 100.608C67.8927 91.4479 73.2127 82.6878 77.7627 73.5478C79.2427 70.5478 78.7627 66.6578 80.1927 63.6878C84.5385 55.1064 90.1739 47.2416 96.9027 40.3678C97.2747 39.969 97.7232 39.6493 98.2214 39.4277C98.7197 39.2061 99.2575 39.0871 99.8027 39.0778C109.963 40.2778 118.543 35.0778 127.603 32.0778C147.143 25.7278 166.543 18.9579 185.953 12.2278C189.843 10.8779 193.543 8.99786 197.313 7.32782C203.183 4.72784 209.143 2.75778 215.763 3.40778C217.273 3.5578 218.883 2.22784 220.513 1.82782C222.763 1.27786 225.853 -0.112152 227.153 0.82782C228.833 2.03784 230.063 5.36774 229.723 7.49774C229.163 10.9778 226.933 14.1478 225.853 17.5878C224.123 23.0878 222.793 28.7278 221.213 34.2778C220.613 36.1178 219.783 37.8777 219.073 39.7478ZM26.2827 237.408C28.2827 244.838 33.5727 249.738 39.5627 253.178C45.0627 256.348 51.8527 258.748 57.6227 253.238C61.4231 249.579 64.8071 245.511 67.7127 241.108C69.1636 238.706 69.7985 235.9 69.5227 233.108C68.6827 225.638 72.1127 218.178 69.3827 210.718C69.1853 209.556 69.4355 208.363 70.0827 207.378C75.4927 198.068 66.2827 197.128 62.0827 193.378C60.978 192.555 59.6726 192.044 58.3027 191.898C56.6027 191.648 54.8027 192.058 53.1227 191.768C47.8827 190.848 43.0427 188.488 37.4127 191.958C33.0127 194.658 31.7527 198.958 29.2327 202.578C27.9127 204.488 25.2927 206.698 25.6127 208.318C26.4048 211.991 26.2603 215.805 25.1927 219.408C23.6927 224.958 25.7427 231.418 26.2827 237.408ZM197.173 25.6177L195.743 24.5278C190.503 26.1178 185.253 27.6778 180.013 29.2978C172.253 31.6978 164.613 34.6178 156.723 36.4478C146.523 38.8078 137.083 42.9578 127.583 47.0878C126.203 47.6978 124.773 48.8378 123.413 48.7678C115.813 48.3578 108.323 51.0278 106.253 59.2178C104.983 64.2178 102.513 68.9778 100.513 73.8178C100.313 74.2878 99.1827 74.4778 99.1227 74.8978C98.8727 76.5378 98.1927 78.7278 98.9627 79.7478C99.5647 80.3542 100.306 80.8044 101.121 81.0589C101.937 81.3134 102.803 81.3645 103.643 81.2078C116.273 76.8078 128.793 72.0578 141.363 67.5078C153.663 63.0478 166.013 58.7678 178.263 54.1978C179.733 53.6478 180.913 51.9378 181.883 50.5278C184.503 46.7011 187.016 42.8012 189.423 38.8278C192.083 34.4678 194.613 30.0277 197.173 25.6177ZM156.553 193.298C154.433 196.228 152.553 198.698 150.843 201.228C150.249 202.074 149.778 203 149.443 203.978C148.663 206.288 148.163 208.708 147.233 210.978C146.573 212.598 144.543 214.038 144.593 215.518C144.873 224.678 146.593 233.888 154.323 239.518C156.973 241.438 160.823 243.898 165.713 243.308C175.943 242.078 178.553 233.748 182.713 226.948C186.043 221.538 183.363 215.228 183.913 209.358C184.023 208.248 184.363 206.858 183.913 206.048C179.213 198.278 171.383 194.688 163.543 191.168C163.333 191.078 162.973 191.358 162.673 191.448L156.553 193.298Z" fill="#7C5DF8"/>
</svg>
