<svg width="106" height="139" viewBox="0 0 106 139" fill="none" xmlns="http://www.w3.org/2000/svg">
<path d="M55.4085 138.459C54.4275 136.65 53.3257 135.12 52.7542 133.411C52.2563 131.91 52.3477 130.212 52.1949 128.584C52.1018 127.599 52.0001 126.609 51.9754 125.623C51.9529 123.725 52.0412 121.892 51.397 119.988C50.8955 118.51 51.2639 116.731 51.2827 115.088C51.3182 113.168 51.4035 111.247 51.4696 109.31C51.4741 108.806 51.5192 108.302 51.6044 107.805C51.9994 105.928 52.4257 104.059 52.9307 101.769C52.2503 102.156 51.8768 102.239 51.7591 102.459C50.7315 104.34 49.6681 106.211 48.7728 108.157C48.0532 109.726 46.9919 110.695 45.2969 111.087C44.2696 111.324 43.8757 111.002 43.7828 110.006C43.4953 106.83 43.2784 103.65 42.7895 100.509C42.3285 97.5819 41.5118 94.7137 40.9344 91.8052C40.6904 90.5349 40.5502 89.2467 40.515 87.953C40.4549 86.1635 40.2774 84.3219 40.6125 82.5857C41.1952 79.5413 40.4904 76.5946 40.2605 73.6116C40.1957 72.7494 39.9546 71.9216 38.6765 72.4917C38.2327 72.6205 37.76 72.608 37.325 72.4561C34.6201 71.7206 31.9455 70.8646 29.2185 70.2183C27.9193 69.9159 26.5117 70.0554 25.176 69.8538C24.0868 69.6342 23.0109 69.3553 21.953 69.0183C21.4832 68.8886 21.0226 68.7203 20.549 68.624C19.779 68.4681 19.0172 68.3382 18.2432 68.2265C17.7669 68.1561 17.2573 68.0033 16.8117 68.109C15.5698 68.396 14.4773 68.4497 13.2829 67.7172C12.5944 67.296 11.5242 67.3748 10.6338 67.4072C9.74347 67.4396 9.22164 67.4981 8.83653 66.4551C8.66762 65.9797 7.66 65.7563 6.99114 65.5218C6.03735 65.1955 5.03522 65.0346 4.08009 64.6587C3.67138 64.5061 3.41397 64.0016 2.94267 63.5043C2.78236 63.4872 1.8389 63.5794 1.7516 63.3498C1.35049 62.2905 -0.610805 62.0588 0.360877 60.217C1.22857 58.5583 1.95989 57.5255 4.10018 57.2429C5.13975 57.1131 6.36125 56.6824 7.44005 56.8011C11.2289 57.2175 14.8944 56.5079 18.5753 55.8578C21.9698 55.2592 25.3737 54.6898 28.7473 53.9799C32.4324 53.2069 36.0895 52.2891 39.7535 51.4155C40.0633 51.3279 40.361 51.2022 40.6398 51.0413C40.9901 48.0706 41.3897 45.3346 41.593 42.5929C41.8098 39.7576 42.3307 36.9723 41.7928 34.0406C41.4541 32.2359 42.2477 30.2076 42.5858 28.2881C43.2338 24.6546 43.9292 21.0348 44.5359 17.4073C44.8677 15.4791 44.5113 13.176 45.4696 11.678C47.2359 8.91205 47.4366 6.3213 46.7352 3.30569C46.5733 2.60288 47.4992 1.4905 48.162 0.786829C48.8249 0.083157 49.8033 0.623266 50.1553 1.69818C50.6594 3.28601 51.3205 4.82396 51.8932 6.38997C52.3272 7.56039 52.7455 8.73818 53.1481 9.92332C54.0452 12.5337 54.9302 15.1515 55.8175 17.7651C55.8505 17.869 55.8774 18.0105 55.9504 18.0588C58.3035 19.5816 57.7242 22.6141 59.3313 24.5559C60.2301 25.6396 60.7813 27.0016 61.5303 28.215C62.4874 29.7662 64.0455 31.2017 64.3118 32.8578C64.5929 34.6058 66.1445 35.1355 66.6611 36.6157C67.1778 38.0958 68.8003 39.2464 69.842 40.6099C70.3177 41.1723 70.6166 41.8614 70.7019 42.5924C70.7372 44.1109 71.64 43.9816 72.5311 43.6451C77.7629 41.6842 83.2505 41.0968 88.7433 40.4576C89.1913 40.4048 89.6804 40.7427 90.152 40.9004C89.8262 41.3041 89.5864 41.8878 89.1653 42.0822C85.5579 43.7467 81.9271 45.3639 78.2728 46.9338C77.4072 47.305 76.4069 47.3545 75.515 47.6769C73.9352 48.2499 73.8261 48.9279 74.7793 50.2623C76.835 53.1519 78.8291 56.086 81.0604 59.313C82.0539 57.6537 82.8724 56.2144 83.7574 54.8147C85.0115 52.8297 86.3053 50.8677 87.5905 48.9014C89.086 46.6217 90.4263 44.2161 92.1253 42.1005C94.3328 39.3624 96.8134 36.8379 99.2189 34.2586C100.383 32.9899 101.614 31.7832 102.906 30.6434C103.377 30.2329 104.141 30.1515 104.77 29.9229C104.735 30.5026 104.857 31.1499 104.637 31.6486C103.821 33.6146 102.897 35.5353 101.87 37.4023C99.52 41.4831 97.1181 45.5268 93.562 48.7715C92.6738 49.5825 92.2292 50.8602 91.5507 51.912C90.0025 54.2871 88.4126 56.6325 86.8946 59.023C86.529 59.7037 86.215 60.4103 85.9552 61.1369C85.7296 61.6518 85.6253 62.3676 85.229 62.6399C83.3308 63.9573 84.6516 65.1107 85.4034 66.0945C87.4095 68.7031 89.499 71.2567 91.6855 73.7187C93.0093 75.2107 94.5732 76.4943 96.0358 77.8672C96.1137 77.9425 96.2911 77.9792 96.306 78.0602C96.7988 80.5094 99.5158 80.9087 100.638 82.629C102.397 85.3091 105.029 87.5511 105.41 91.0222C105.529 92.0781 106.092 93.3076 105.71 94.1225C105.406 94.755 103.972 94.9243 103.003 95.139C102.666 95.2137 102.167 94.8681 101.858 94.5872C98.8083 91.7882 94.6863 91.5025 91.071 90.0552C90.2033 89.7051 89.4815 89.0085 88.6683 88.5125C87.9519 88.0715 87.1248 87.2475 86.4804 87.3626C84.3561 87.7296 82.7974 86.4622 81.0036 85.8843C79.8052 85.5141 78.4629 85.5184 77.7866 83.9781C77.5901 83.5294 75.9855 83.6384 75.0292 83.656C74.8925 83.6565 74.815 84.5926 74.6248 85.0604C73.8347 87.009 72.9682 88.9211 72.2136 90.8906C71.05 94.1026 69.9151 97.314 68.8087 100.525C67.1952 105.247 65.6453 109.989 64.0728 114.727C63.2283 117.265 62.412 119.812 61.5599 122.348C61.0518 123.857 60.5575 125.376 59.9394 126.844C59.4737 127.954 58.9008 128.986 59.588 130.198C59.6742 130.408 59.6769 130.644 59.5954 130.857C58.8359 132.924 58.1452 135.027 57.2296 137.023C56.937 137.645 56.0208 137.993 55.4085 138.459ZM73.8411 73.8072C74.9726 71.1069 76.0612 68.6346 76.9998 66.1099C77.1487 65.7052 76.6369 65.0349 76.3699 64.5227C76.1343 64.0757 75.7979 63.6856 75.5241 63.2543C73.1316 59.4851 70.7886 55.6788 68.3345 51.9542C67.7186 51.0239 67.154 49.6197 65.5262 50.1436C64.2661 50.5435 63.0233 51.0203 61.8058 51.5318C58.6728 52.8409 55.2757 53.1364 52.0515 54.1242C49.5134 54.9012 48.6628 55.6037 48.6405 57.4516C48.6266 59.9216 48.7428 62.3902 48.9886 64.847C49.0263 65.2497 49.8571 65.733 50.4013 65.8926C52.545 66.506 54.7914 66.8188 56.8696 67.5888C59.5949 68.5931 61.9761 70.5107 65.1652 70.1954C66.0391 70.1188 66.9073 70.3812 67.588 70.9275C69.057 72.3663 70.8965 72.6796 72.7509 73.0738C72.9815 73.1079 73.1814 73.3518 73.8411 73.8072ZM47.8232 100.07C49.211 98.1994 50.5067 96.6408 51.5987 94.9395C52.6906 93.2383 53.5468 91.3617 54.6688 89.6758C55.2845 88.7171 56.1007 87.9009 57.0615 87.2829C57.4285 87.1052 57.8287 87.0063 58.2361 86.9928C58.6434 86.9793 59.0486 87.0515 59.4252 87.2046C59.8463 87.3961 60.0717 88.4469 60.0261 89.0976C59.9839 89.8044 59.3813 90.4711 59.2945 91.1849C58.9274 94.3073 58.417 97.4432 58.4428 100.566C58.4586 102.273 57.2187 103.678 57.8174 105.508C58.2791 106.962 57.9576 108.469 57.365 110.098C56.812 111.624 57.7502 113.66 57.9508 115.484C57.9785 116.242 57.9462 117.002 57.8541 117.756C58.4421 117.633 58.6947 117.453 58.7648 117.22C59.2157 115.701 59.5952 114.161 60.0622 112.648C61.1002 109.312 62.1857 105.99 63.2387 102.657C63.469 101.93 63.5676 101.162 63.8367 100.455C64.8465 97.8256 65.9016 95.2139 66.9244 92.591C67.0229 92.3452 66.9833 92.0504 67.0636 91.7926C67.59 90.1029 68.0474 88.3886 68.7032 86.7435C69.2359 85.3914 70.091 84.1584 70.6364 82.8237C71.1323 81.594 70.4839 80.9813 69.1311 81.157C67.5903 81.3422 66.0351 81.6179 65.1548 79.7527C64.9516 79.3169 64.227 78.975 63.6893 78.8812C62.2394 78.6265 60.7412 78.6732 59.3113 78.3908C58.193 78.1703 57.1939 77.6332 55.9453 77.74C55.3127 77.8015 54.613 77.2086 53.5907 76.7575C53.4607 75.6443 52.4966 75.2855 50.9694 75.3092C49.0568 75.3444 48.503 75.6311 48.4558 77.6047C48.4382 78.2644 48.4104 79.0167 48.6952 79.5732C49.2918 80.7492 48.7441 81.2483 47.6919 81.6788C48.8496 84.0206 49.6055 86.5722 48.7196 89.0587C47.8901 91.4166 48.5102 93.8468 47.7324 96.1632C47.3669 97.1907 47.7453 98.4395 47.8232 100.07ZM50.7619 22.097C50.9478 22.8529 51.1629 23.3601 51.174 23.8606C51.202 25.2146 51.1583 26.5695 51.0431 27.9196C50.791 30.5302 50.3686 33.1377 50.1828 35.7415C50.0455 37.7365 50.0548 39.7381 50.2105 41.7304C50.3681 43.782 50.6977 45.8076 49.6927 47.7601C49.5116 48.2496 49.3739 48.7538 49.2812 49.2668L64.0475 46.0414C59.6953 37.5401 55.5911 29.5248 51.4647 21.4736L50.7619 22.097ZM27.0188 59.5433L27.0727 60.0194L40.589 62.8775C40.8294 62.0005 41.2594 61.142 41.2377 60.3018C41.2159 59.4616 40.817 58.5339 40.4422 57.7164C40.3134 57.5631 40.1485 57.4438 39.9621 57.369C39.7756 57.2941 39.5733 57.2661 39.3729 57.2873C38.088 57.5522 36.846 58.043 35.5575 58.2626C32.7182 58.7492 29.8646 59.1225 27.0188 59.5433ZM80.5633 70.8441L79.1006 75.1794L87.5704 80.0826L87.663 79.8637L80.5633 70.8441Z" fill="#7C5DF8"/>
</svg>
